%TF.GenerationSoftware,KiCad,Pcbnew,10.0.3*%
%TF.CreationDate,2026-06-26T15:00:34+05:30*%
%TF.ProjectId,king cobra kicad,6b696e67-2063-46f6-9272-61206b696361,rev?*%
%TF.SameCoordinates,Original*%
%TF.FileFunction,Copper,L1,Top*%
%TF.FilePolarity,Positive*%
%FSLAX46Y46*%
G04 Gerber Fmt 4.6, Leading zero omitted, Abs format (unit mm)*
G04 Created by KiCad (PCBNEW 10.0.3) date 2026-06-26 15:00:34*
%MOMM*%
%LPD*%
G01*
G04 APERTURE LIST*
G04 Aperture macros list*
%AMRoundRect*
0 Rectangle with rounded corners*
0 $1 Rounding radius*
0 $2 $3 $4 $5 $6 $7 $8 $9 X,Y pos of 4 corners*
0 Add a 4 corners polygon primitive as box body*
4,1,4,$2,$3,$4,$5,$6,$7,$8,$9,$2,$3,0*
0 Add four circle primitives for the rounded corners*
1,1,$1+$1,$2,$3*
1,1,$1+$1,$4,$5*
1,1,$1+$1,$6,$7*
1,1,$1+$1,$8,$9*
0 Add four rect primitives between the rounded corners*
20,1,$1+$1,$2,$3,$4,$5,0*
20,1,$1+$1,$4,$5,$6,$7,0*
20,1,$1+$1,$6,$7,$8,$9,0*
20,1,$1+$1,$8,$9,$2,$3,0*%
G04 Aperture macros list end*
%TA.AperFunction,ComponentPad*%
%ADD10C,1.400000*%
%TD*%
%TA.AperFunction,ComponentPad*%
%ADD11RoundRect,0.250001X-1.149999X1.149999X-1.149999X-1.149999X1.149999X-1.149999X1.149999X1.149999X0*%
%TD*%
%TA.AperFunction,ComponentPad*%
%ADD12C,2.800000*%
%TD*%
%TA.AperFunction,ComponentPad*%
%ADD13RoundRect,0.249999X-0.850001X0.850001X-0.850001X-0.850001X0.850001X-0.850001X0.850001X0.850001X0*%
%TD*%
%TA.AperFunction,ComponentPad*%
%ADD14C,2.200000*%
%TD*%
%TA.AperFunction,ComponentPad*%
%ADD15RoundRect,0.250000X-0.550000X0.550000X-0.550000X-0.550000X0.550000X-0.550000X0.550000X0.550000X0*%
%TD*%
%TA.AperFunction,ComponentPad*%
%ADD16C,1.600000*%
%TD*%
%TA.AperFunction,Conductor*%
%ADD17C,1.000000*%
%TD*%
G04 APERTURE END LIST*
D10*
%TO.P,R1,2*%
%TO.N,GND*%
X77500000Y-54040000D03*
%TO.P,R1,1*%
%TO.N,Net-(D1-K)*%
X77500000Y-48960000D03*
%TD*%
D11*
%TO.P,J2,1,Pin_1_1*%
%TO.N,Net-(D1-K)*%
X88500000Y-49000000D03*
D12*
%TO.P,J2,2,Pin_2_2*%
%TO.N,GND*%
X88500000Y-54000000D03*
%TD*%
D11*
%TO.P,J1,1,Pin_1_1*%
%TO.N,Net-(D3-K)*%
X25032500Y-48000000D03*
D12*
%TO.P,J1,2,Pin_2_2*%
%TO.N,Net-(D1-A)*%
X25032500Y-53000000D03*
%TD*%
D13*
%TO.P,D4,1,K_1*%
%TO.N,Net-(D1-K)*%
X55500000Y-33420000D03*
D14*
%TO.P,D4,2,A_2*%
%TO.N,Net-(D3-K)*%
X55500000Y-43580000D03*
%TD*%
D13*
%TO.P,D3,1,K_1*%
%TO.N,Net-(D3-K)*%
X55500000Y-60420000D03*
D14*
%TO.P,D3,2,A_2*%
%TO.N,GND*%
X55500000Y-70580000D03*
%TD*%
D13*
%TO.P,D2,1,K_1*%
%TO.N,Net-(D1-A)*%
X41500000Y-60420000D03*
D14*
%TO.P,D2,2,A_2*%
%TO.N,GND*%
X41500000Y-70580000D03*
%TD*%
D13*
%TO.P,D1,1,K_1*%
%TO.N,Net-(D1-K)*%
X41500000Y-34500000D03*
D14*
%TO.P,D1,2,A_2*%
%TO.N,Net-(D1-A)*%
X41500000Y-44660000D03*
%TD*%
D15*
%TO.P,C1,1*%
%TO.N,Net-(D1-K)*%
X66000000Y-50391067D03*
D16*
%TO.P,C1,2*%
%TO.N,GND*%
X66000000Y-52891067D03*
%TD*%
%TO.N,Net-(D1-K)*%
D17*
X77500000Y-48960000D02*
X88460000Y-48960000D01*
X88460000Y-48960000D02*
X88500000Y-49000000D01*
X76068933Y-50391067D02*
X77500000Y-48960000D01*
X66000000Y-50391067D02*
X76068933Y-50391067D01*
%TO.N,GND*%
X88460000Y-54040000D02*
X88500000Y-54000000D01*
X77500000Y-54040000D02*
X88460000Y-54040000D01*
X66000000Y-52891067D02*
X76351067Y-52891067D01*
X76351067Y-52891067D02*
X77500000Y-54040000D01*
X66000000Y-60080000D02*
X66000000Y-52891067D01*
X55500000Y-70580000D02*
X66000000Y-60080000D01*
X41000000Y-70580000D02*
X55500000Y-70580000D01*
%TO.N,Net-(D1-A)*%
X33580000Y-53000000D02*
X41000000Y-60420000D01*
X25032500Y-53000000D02*
X33580000Y-53000000D01*
X41500000Y-44660000D02*
X41500000Y-45000000D01*
%TO.N,Net-(D1-K)*%
X55500000Y-39891067D02*
X66000000Y-50391067D01*
X55500000Y-33420000D02*
X55500000Y-39891067D01*
X54420000Y-34500000D02*
X55500000Y-33420000D01*
X41500000Y-34500000D02*
X54420000Y-34500000D01*
%TO.N,Net-(D3-K)*%
X55500000Y-43580000D02*
X55500000Y-60420000D01*
X51080000Y-48000000D02*
X55500000Y-43580000D01*
X25032500Y-48000000D02*
X51080000Y-48000000D01*
%TD*%
%TA.AperFunction,Conductor*%
%TO.N,GND*%
G36*
X61442539Y-28020185D02*
G01*
X61488294Y-28072989D01*
X61499500Y-28124500D01*
X61499500Y-40565891D01*
X61533608Y-40693187D01*
X61566554Y-40750250D01*
X61599500Y-40807314D01*
X61692686Y-40900500D01*
X61806814Y-40966392D01*
X61934108Y-41000500D01*
X62065892Y-41000500D01*
X95376000Y-41000500D01*
X95443039Y-41020185D01*
X95488794Y-41072989D01*
X95500000Y-41124500D01*
X95500000Y-61875500D01*
X95480315Y-61942539D01*
X95427511Y-61988294D01*
X95376000Y-61999500D01*
X70934108Y-61999500D01*
X70806812Y-62033608D01*
X70692686Y-62099500D01*
X70692683Y-62099502D01*
X70599502Y-62192683D01*
X70599500Y-62192686D01*
X70533608Y-62306812D01*
X70506471Y-62408093D01*
X70470106Y-62467754D01*
X70407259Y-62498283D01*
X70386696Y-62500000D01*
X69500000Y-62500000D01*
X69978690Y-76860736D01*
X69961250Y-76928394D01*
X69910000Y-76975883D01*
X69853611Y-76988862D01*
X17623352Y-76505249D01*
X17556498Y-76484944D01*
X17511234Y-76431719D01*
X17500500Y-76381254D01*
X17500500Y-70454071D01*
X39900000Y-70454071D01*
X39900000Y-70705928D01*
X39939397Y-70954669D01*
X40017219Y-71194184D01*
X40131557Y-71418583D01*
X40205748Y-71520697D01*
X40205748Y-71520698D01*
X40976212Y-70750233D01*
X40987482Y-70792292D01*
X41059890Y-70917708D01*
X41162292Y-71020110D01*
X41287708Y-71092518D01*
X41329765Y-71103787D01*
X40559300Y-71874250D01*
X40661416Y-71948442D01*
X40885815Y-72062780D01*
X41125330Y-72140602D01*
X41374072Y-72180000D01*
X41625928Y-72180000D01*
X41874669Y-72140602D01*
X42114184Y-72062780D01*
X42338575Y-71948446D01*
X42338581Y-71948442D01*
X42440697Y-71874250D01*
X42440698Y-71874250D01*
X41670234Y-71103787D01*
X41712292Y-71092518D01*
X41837708Y-71020110D01*
X41940110Y-70917708D01*
X42012518Y-70792292D01*
X42023787Y-70750235D01*
X42794250Y-71520698D01*
X42794250Y-71520697D01*
X42868442Y-71418581D01*
X42868446Y-71418575D01*
X42982780Y-71194184D01*
X43060602Y-70954669D01*
X43100000Y-70705928D01*
X43100000Y-70454071D01*
X53900000Y-70454071D01*
X53900000Y-70705928D01*
X53939397Y-70954669D01*
X54017219Y-71194184D01*
X54131557Y-71418583D01*
X54205748Y-71520697D01*
X54205748Y-71520698D01*
X54976212Y-70750234D01*
X54987482Y-70792292D01*
X55059890Y-70917708D01*
X55162292Y-71020110D01*
X55287708Y-71092518D01*
X55329765Y-71103787D01*
X54559300Y-71874250D01*
X54661416Y-71948442D01*
X54885815Y-72062780D01*
X55125330Y-72140602D01*
X55374072Y-72180000D01*
X55625928Y-72180000D01*
X55874669Y-72140602D01*
X56114184Y-72062780D01*
X56338575Y-71948446D01*
X56338581Y-71948442D01*
X56440697Y-71874250D01*
X56440698Y-71874250D01*
X55670234Y-71103787D01*
X55712292Y-71092518D01*
X55837708Y-71020110D01*
X55940110Y-70917708D01*
X56012518Y-70792292D01*
X56023787Y-70750235D01*
X56794250Y-71520698D01*
X56794250Y-71520697D01*
X56868442Y-71418581D01*
X56868446Y-71418575D01*
X56982780Y-71194184D01*
X57060602Y-70954669D01*
X57100000Y-70705928D01*
X57100000Y-70454071D01*
X57060602Y-70205330D01*
X56982780Y-69965815D01*
X56868442Y-69741416D01*
X56794250Y-69639301D01*
X56794250Y-69639300D01*
X56023787Y-70409764D01*
X56012518Y-70367708D01*
X55940110Y-70242292D01*
X55837708Y-70139890D01*
X55712292Y-70067482D01*
X55670232Y-70056212D01*
X56440698Y-69285748D01*
X56338583Y-69211557D01*
X56114184Y-69097219D01*
X55874669Y-69019397D01*
X55625928Y-68980000D01*
X55374072Y-68980000D01*
X55125330Y-69019397D01*
X54885815Y-69097219D01*
X54661413Y-69211559D01*
X54559301Y-69285747D01*
X54559300Y-69285748D01*
X55329765Y-70056212D01*
X55287708Y-70067482D01*
X55162292Y-70139890D01*
X55059890Y-70242292D01*
X54987482Y-70367708D01*
X54976212Y-70409765D01*
X54205748Y-69639300D01*
X54205747Y-69639301D01*
X54131559Y-69741413D01*
X54017219Y-69965815D01*
X53939397Y-70205330D01*
X53900000Y-70454071D01*
X43100000Y-70454071D01*
X43060602Y-70205330D01*
X42982780Y-69965815D01*
X42868442Y-69741416D01*
X42794250Y-69639301D01*
X42794250Y-69639300D01*
X42023787Y-70409764D01*
X42012518Y-70367708D01*
X41940110Y-70242292D01*
X41837708Y-70139890D01*
X41712292Y-70067482D01*
X41670232Y-70056212D01*
X42440698Y-69285748D01*
X42338583Y-69211557D01*
X42114184Y-69097219D01*
X41874669Y-69019397D01*
X41625928Y-68980000D01*
X41374072Y-68980000D01*
X41125330Y-69019397D01*
X40885815Y-69097219D01*
X40661413Y-69211559D01*
X40559301Y-69285747D01*
X40559300Y-69285748D01*
X41329765Y-70056212D01*
X41287708Y-70067482D01*
X41162292Y-70139890D01*
X41059890Y-70242292D01*
X40987482Y-70367708D01*
X40976212Y-70409765D01*
X40205748Y-69639300D01*
X40205747Y-69639301D01*
X40131559Y-69741413D01*
X40017219Y-69965815D01*
X39939397Y-70205330D01*
X39900000Y-70454071D01*
X17500500Y-70454071D01*
X17500500Y-52875441D01*
X23132000Y-52875441D01*
X23132000Y-53124558D01*
X23132001Y-53124575D01*
X23161678Y-53350000D01*
X23164518Y-53371565D01*
X23168908Y-53387950D01*
X23228998Y-53612207D01*
X23324330Y-53842361D01*
X23324337Y-53842376D01*
X23448900Y-54058126D01*
X23600560Y-54255774D01*
X23600566Y-54255781D01*
X23776718Y-54431933D01*
X23776725Y-54431939D01*
X23974373Y-54583599D01*
X24190123Y-54708162D01*
X24190138Y-54708169D01*
X24289325Y-54749253D01*
X24420293Y-54803502D01*
X24660935Y-54867982D01*
X24907935Y-54900500D01*
X24907942Y-54900500D01*
X25157058Y-54900500D01*
X25157065Y-54900500D01*
X25404065Y-54867982D01*
X25644707Y-54803502D01*
X25874873Y-54708164D01*
X26090627Y-54583599D01*
X26288276Y-54431938D01*
X26464438Y-54255776D01*
X26616099Y-54058127D01*
X26616107Y-54058112D01*
X26617776Y-54055616D01*
X26618472Y-54055033D01*
X26618570Y-54054907D01*
X26618598Y-54054928D01*
X26671385Y-54010808D01*
X26720883Y-54000500D01*
X33114218Y-54000500D01*
X33181257Y-54020185D01*
X33201899Y-54036819D01*
X39863181Y-60698101D01*
X39896666Y-60759424D01*
X39899500Y-60785782D01*
X39899500Y-61320017D01*
X39910000Y-61422796D01*
X39910001Y-61422798D01*
X39965186Y-61589335D01*
X40057288Y-61738656D01*
X40181344Y-61862712D01*
X40330665Y-61954814D01*
X40497202Y-62009999D01*
X40599990Y-62020500D01*
X40599995Y-62020500D01*
X42400005Y-62020500D01*
X42400010Y-62020500D01*
X42502798Y-62009999D01*
X42669335Y-61954814D01*
X42818656Y-61862712D01*
X42942712Y-61738656D01*
X43034814Y-61589335D01*
X43089999Y-61422798D01*
X43100500Y-61320010D01*
X43100500Y-59519990D01*
X43089999Y-59417202D01*
X43034814Y-59250665D01*
X42942712Y-59101344D01*
X42818656Y-58977288D01*
X42669335Y-58885186D01*
X42502798Y-58830001D01*
X42502796Y-58830000D01*
X42400017Y-58819500D01*
X42400010Y-58819500D01*
X40865783Y-58819500D01*
X40798744Y-58799815D01*
X40778102Y-58783181D01*
X34364209Y-52369289D01*
X34364206Y-52369285D01*
X34364206Y-52369286D01*
X34357139Y-52362219D01*
X34357139Y-52362218D01*
X34217782Y-52222861D01*
X34217781Y-52222860D01*
X34217780Y-52222859D01*
X34053920Y-52113371D01*
X34053911Y-52113366D01*
X33932382Y-52063027D01*
X33932379Y-52063026D01*
X33925165Y-52060038D01*
X33871836Y-52037949D01*
X33761511Y-52016004D01*
X33757233Y-52015153D01*
X33757222Y-52015150D01*
X33678543Y-51999500D01*
X33678541Y-51999500D01*
X26720883Y-51999500D01*
X26653844Y-51979815D01*
X26617776Y-51944384D01*
X26616103Y-51941880D01*
X26616099Y-51941873D01*
X26516131Y-51811592D01*
X26464439Y-51744225D01*
X26464433Y-51744218D01*
X26288281Y-51568066D01*
X26288274Y-51568060D01*
X26090626Y-51416400D01*
X25874876Y-51291837D01*
X25874861Y-51291830D01*
X25644707Y-51196498D01*
X25404061Y-51132017D01*
X25157075Y-51099501D01*
X25157070Y-51099500D01*
X25157065Y-51099500D01*
X24907935Y-51099500D01*
X24907929Y-51099500D01*
X24907924Y-51099501D01*
X24660938Y-51132017D01*
X24420292Y-51196498D01*
X24190138Y-51291830D01*
X24190123Y-51291837D01*
X23974373Y-51416400D01*
X23776725Y-51568060D01*
X23776718Y-51568066D01*
X23600566Y-51744218D01*
X23600560Y-51744225D01*
X23448900Y-51941873D01*
X23324337Y-52157623D01*
X23324330Y-52157638D01*
X23228998Y-52387792D01*
X23164517Y-52628438D01*
X23132001Y-52875424D01*
X23132000Y-52875441D01*
X17500500Y-52875441D01*
X17500500Y-46799984D01*
X23132000Y-46799984D01*
X23132000Y-49200015D01*
X23142500Y-49302795D01*
X23142501Y-49302796D01*
X23197686Y-49469335D01*
X23197687Y-49469337D01*
X23289786Y-49618651D01*
X23289789Y-49618655D01*
X23413844Y-49742710D01*
X23413848Y-49742713D01*
X23563162Y-49834812D01*
X23563164Y-49834813D01*
X23563166Y-49834814D01*
X23729703Y-49889999D01*
X23832492Y-49900500D01*
X23832497Y-49900500D01*
X26232503Y-49900500D01*
X26232508Y-49900500D01*
X26335297Y-49889999D01*
X26501834Y-49834814D01*
X26651155Y-49742711D01*
X26775211Y-49618655D01*
X26867314Y-49469334D01*
X26922499Y-49302797D01*
X26933000Y-49200008D01*
X26933000Y-49124500D01*
X26952685Y-49057461D01*
X27005489Y-49011706D01*
X27057000Y-49000500D01*
X51178542Y-49000500D01*
X51209566Y-48994328D01*
X51275188Y-48981275D01*
X51371836Y-48962051D01*
X51425165Y-48939961D01*
X51553914Y-48886632D01*
X51717782Y-48777139D01*
X51857139Y-48637782D01*
X51857140Y-48637779D01*
X51864206Y-48630714D01*
X51864208Y-48630710D01*
X54287821Y-46207098D01*
X54349142Y-46173615D01*
X54418834Y-46178599D01*
X54474767Y-46220471D01*
X54499184Y-46285935D01*
X54499500Y-46294781D01*
X54499500Y-58739698D01*
X54479815Y-58806737D01*
X54427011Y-58852492D01*
X54414505Y-58857404D01*
X54330665Y-58885186D01*
X54330662Y-58885187D01*
X54181342Y-58977289D01*
X54057289Y-59101342D01*
X53965187Y-59250662D01*
X53965186Y-59250665D01*
X53910001Y-59417202D01*
X53910001Y-59417203D01*
X53910000Y-59417203D01*
X53899500Y-59519982D01*
X53899500Y-61320017D01*
X53910000Y-61422796D01*
X53910001Y-61422798D01*
X53965186Y-61589335D01*
X54057288Y-61738656D01*
X54181344Y-61862712D01*
X54330665Y-61954814D01*
X54497202Y-62009999D01*
X54599990Y-62020500D01*
X54599995Y-62020500D01*
X56400005Y-62020500D01*
X56400010Y-62020500D01*
X56502798Y-62009999D01*
X56669335Y-61954814D01*
X56818656Y-61862712D01*
X56942712Y-61738656D01*
X57034814Y-61589335D01*
X57089999Y-61422798D01*
X57100500Y-61320010D01*
X57100500Y-59519990D01*
X57089999Y-59417202D01*
X57034814Y-59250665D01*
X56942712Y-59101344D01*
X56818656Y-58977288D01*
X56669335Y-58885186D01*
X56585495Y-58857404D01*
X56528050Y-58817631D01*
X56501228Y-58753114D01*
X56500500Y-58739698D01*
X56500500Y-55047882D01*
X76845669Y-55047882D01*
X76845670Y-55047883D01*
X76871059Y-55066329D01*
X77039362Y-55152085D01*
X77218997Y-55210451D01*
X77405553Y-55240000D01*
X77594447Y-55240000D01*
X77781002Y-55210451D01*
X77960637Y-55152085D01*
X78128937Y-55066331D01*
X78154328Y-55047883D01*
X78154328Y-55047882D01*
X77500001Y-54393554D01*
X77500000Y-54393554D01*
X76845669Y-55047882D01*
X56500500Y-55047882D01*
X56500500Y-44893962D01*
X56520185Y-44826923D01*
X56539623Y-44804650D01*
X56539211Y-44804238D01*
X56557488Y-44785961D01*
X56720793Y-44622656D01*
X56868870Y-44418845D01*
X56983241Y-44194379D01*
X57061090Y-43954785D01*
X57100500Y-43705962D01*
X57100500Y-43454038D01*
X57061090Y-43205215D01*
X57057950Y-43195550D01*
X57055953Y-43125708D01*
X57092032Y-43065875D01*
X57154733Y-43035046D01*
X57224147Y-43043009D01*
X57263560Y-43069547D01*
X60993996Y-46799984D01*
X64663181Y-50469169D01*
X64696666Y-50530492D01*
X64699500Y-50556850D01*
X64699500Y-50991068D01*
X64699501Y-50991086D01*
X64710000Y-51093863D01*
X64710001Y-51093866D01*
X64765185Y-51260398D01*
X64765186Y-51260401D01*
X64857288Y-51409723D01*
X64981344Y-51533779D01*
X65130666Y-51625881D01*
X65192440Y-51646351D01*
X65249884Y-51686122D01*
X65276707Y-51750638D01*
X65277053Y-51773786D01*
X65274077Y-51811591D01*
X65953554Y-52491067D01*
X65947339Y-52491067D01*
X65845606Y-52518326D01*
X65754394Y-52570987D01*
X65679920Y-52645461D01*
X65627259Y-52736673D01*
X65600000Y-52838406D01*
X65600000Y-52844620D01*
X64920524Y-52165144D01*
X64920523Y-52165144D01*
X64888143Y-52209711D01*
X64795244Y-52392035D01*
X64732009Y-52586649D01*
X64700000Y-52788749D01*
X64700000Y-52993384D01*
X64732009Y-53195484D01*
X64795244Y-53390098D01*
X64888141Y-53572417D01*
X64888147Y-53572426D01*
X64920523Y-53616988D01*
X64920524Y-53616989D01*
X65600000Y-52937513D01*
X65600000Y-52943728D01*
X65627259Y-53045461D01*
X65679920Y-53136673D01*
X65754394Y-53211147D01*
X65845606Y-53263808D01*
X65947339Y-53291067D01*
X65953553Y-53291067D01*
X65274076Y-53970541D01*
X65318650Y-54002926D01*
X65500968Y-54095822D01*
X65695582Y-54159057D01*
X65897683Y-54191067D01*
X66102317Y-54191067D01*
X66304417Y-54159057D01*
X66499031Y-54095822D01*
X66681349Y-54002926D01*
X66725921Y-53970541D01*
X66725921Y-53970540D01*
X66700933Y-53945552D01*
X76300000Y-53945552D01*
X76300000Y-54134447D01*
X76329548Y-54321002D01*
X76387914Y-54500637D01*
X76473666Y-54668933D01*
X76492116Y-54694328D01*
X77146446Y-54040000D01*
X77146446Y-54039999D01*
X77100369Y-53993922D01*
X77150000Y-53993922D01*
X77150000Y-54086078D01*
X77173852Y-54175095D01*
X77219930Y-54254905D01*
X77285095Y-54320070D01*
X77364905Y-54366148D01*
X77453922Y-54390000D01*
X77546078Y-54390000D01*
X77635095Y-54366148D01*
X77714905Y-54320070D01*
X77780070Y-54254905D01*
X77826148Y-54175095D01*
X77850000Y-54086078D01*
X77850000Y-54039999D01*
X77853554Y-54039999D01*
X77853554Y-54040000D01*
X78507882Y-54694328D01*
X78507883Y-54694328D01*
X78526331Y-54668937D01*
X78612085Y-54500637D01*
X78670451Y-54321002D01*
X78700000Y-54134447D01*
X78700000Y-53945552D01*
X78691329Y-53890806D01*
X78688899Y-53875466D01*
X86600000Y-53875466D01*
X86600000Y-54124533D01*
X86632508Y-54371463D01*
X86696973Y-54612049D01*
X86792283Y-54842148D01*
X86792288Y-54842159D01*
X86916813Y-55057841D01*
X86916819Y-55057849D01*
X86991400Y-55155045D01*
X87898958Y-54247487D01*
X87923978Y-54307890D01*
X87995112Y-54414351D01*
X88085649Y-54504888D01*
X88192110Y-54576022D01*
X88252511Y-54601041D01*
X87344953Y-55508598D01*
X87442150Y-55583180D01*
X87442158Y-55583186D01*
X87657840Y-55707711D01*
X87657851Y-55707716D01*
X87887950Y-55803026D01*
X88128536Y-55867491D01*
X88375466Y-55900000D01*
X88624534Y-55900000D01*
X88871463Y-55867491D01*
X89112049Y-55803026D01*
X89342148Y-55707716D01*
X89342159Y-55707711D01*
X89557855Y-55583178D01*
X89655045Y-55508600D01*
X89655045Y-55508597D01*
X88747488Y-54601041D01*
X88807890Y-54576022D01*
X88914351Y-54504888D01*
X89004888Y-54414351D01*
X89076022Y-54307890D01*
X89101041Y-54247488D01*
X90008597Y-55155045D01*
X90008600Y-55155045D01*
X90083178Y-55057855D01*
X90207711Y-54842159D01*
X90207716Y-54842148D01*
X90303026Y-54612049D01*
X90367491Y-54371463D01*
X90400000Y-54124533D01*
X90400000Y-53875466D01*
X90367491Y-53628536D01*
X90303026Y-53387950D01*
X90207716Y-53157851D01*
X90207711Y-53157840D01*
X90083186Y-52942158D01*
X90083180Y-52942150D01*
X90008598Y-52844953D01*
X89101041Y-53752510D01*
X89076022Y-53692110D01*
X89004888Y-53585649D01*
X88914351Y-53495112D01*
X88807890Y-53423978D01*
X88747487Y-53398957D01*
X89655045Y-52491400D01*
X89557849Y-52416819D01*
X89557841Y-52416813D01*
X89342159Y-52292288D01*
X89342148Y-52292283D01*
X89112049Y-52196973D01*
X88871463Y-52132508D01*
X88624534Y-52100000D01*
X88375466Y-52100000D01*
X88128536Y-52132508D01*
X87887950Y-52196973D01*
X87657851Y-52292283D01*
X87657847Y-52292285D01*
X87442143Y-52416823D01*
X87344953Y-52491399D01*
X87344953Y-52491400D01*
X88252511Y-53398958D01*
X88192110Y-53423978D01*
X88085649Y-53495112D01*
X87995112Y-53585649D01*
X87923978Y-53692110D01*
X87898958Y-53752511D01*
X86991400Y-52844953D01*
X86991399Y-52844953D01*
X86916823Y-52942143D01*
X86792285Y-53157847D01*
X86792283Y-53157851D01*
X86696973Y-53387950D01*
X86632508Y-53628536D01*
X86600000Y-53875466D01*
X78688899Y-53875466D01*
X78670452Y-53758997D01*
X78612085Y-53579362D01*
X78526329Y-53411059D01*
X78507883Y-53385670D01*
X78507882Y-53385669D01*
X77853554Y-54039999D01*
X77850000Y-54039999D01*
X77850000Y-53993922D01*
X77826148Y-53904905D01*
X77780070Y-53825095D01*
X77714905Y-53759930D01*
X77635095Y-53713852D01*
X77546078Y-53690000D01*
X77453922Y-53690000D01*
X77364905Y-53713852D01*
X77285095Y-53759930D01*
X77219930Y-53825095D01*
X77173852Y-53904905D01*
X77150000Y-53993922D01*
X77100369Y-53993922D01*
X76492116Y-53385669D01*
X76492116Y-53385670D01*
X76473669Y-53411060D01*
X76387914Y-53579362D01*
X76329548Y-53758997D01*
X76300000Y-53945552D01*
X66700933Y-53945552D01*
X66046447Y-53291067D01*
X66052661Y-53291067D01*
X66154394Y-53263808D01*
X66245606Y-53211147D01*
X66320080Y-53136673D01*
X66372741Y-53045461D01*
X66400000Y-52943728D01*
X66400000Y-52937514D01*
X67079474Y-53616988D01*
X67111859Y-53572416D01*
X67204755Y-53390098D01*
X67267990Y-53195484D01*
X67289453Y-53059977D01*
X67289453Y-53059976D01*
X67293866Y-53032116D01*
X76845669Y-53032116D01*
X77500000Y-53686446D01*
X77500001Y-53686446D01*
X78154328Y-53032116D01*
X78128933Y-53013666D01*
X77960637Y-52927914D01*
X77781002Y-52869548D01*
X77594447Y-52840000D01*
X77405553Y-52840000D01*
X77218997Y-52869548D01*
X77039362Y-52927914D01*
X76871060Y-53013669D01*
X76845670Y-53032116D01*
X76845669Y-53032116D01*
X67293866Y-53032116D01*
X67300000Y-52993385D01*
X67300000Y-52788749D01*
X67267990Y-52586651D01*
X67265073Y-52577673D01*
X67265072Y-52577671D01*
X67204755Y-52392035D01*
X67111859Y-52209717D01*
X67079474Y-52165144D01*
X67079474Y-52165143D01*
X66400000Y-52844618D01*
X66400000Y-52838406D01*
X66372741Y-52736673D01*
X66320080Y-52645461D01*
X66245606Y-52570987D01*
X66154394Y-52518326D01*
X66052661Y-52491067D01*
X66046446Y-52491067D01*
X66725921Y-51811592D01*
X66722946Y-51773786D01*
X66737310Y-51705408D01*
X66786361Y-51655651D01*
X66807555Y-51646352D01*
X66869334Y-51625881D01*
X67018656Y-51533779D01*
X67124550Y-51427885D01*
X67185873Y-51394401D01*
X67212231Y-51391567D01*
X76167475Y-51391567D01*
X76198499Y-51385395D01*
X76264121Y-51372342D01*
X76360769Y-51353118D01*
X76414098Y-51331028D01*
X76542847Y-51277699D01*
X76706715Y-51168206D01*
X76846072Y-51028849D01*
X76846072Y-51028847D01*
X76856280Y-51018640D01*
X76856282Y-51018637D01*
X77708501Y-50166417D01*
X77769822Y-50132934D01*
X77776776Y-50131627D01*
X77781118Y-50130940D01*
X77960832Y-50072547D01*
X78129199Y-49986760D01*
X78132746Y-49984183D01*
X78198552Y-49960702D01*
X78205633Y-49960500D01*
X86475500Y-49960500D01*
X86542539Y-49980185D01*
X86588294Y-50032989D01*
X86599500Y-50084500D01*
X86599500Y-50200015D01*
X86610000Y-50302795D01*
X86610001Y-50302796D01*
X86665186Y-50469335D01*
X86665187Y-50469337D01*
X86757286Y-50618651D01*
X86757289Y-50618655D01*
X86881344Y-50742710D01*
X86881348Y-50742713D01*
X87030662Y-50834812D01*
X87030664Y-50834813D01*
X87030666Y-50834814D01*
X87197203Y-50889999D01*
X87299992Y-50900500D01*
X87299997Y-50900500D01*
X89700003Y-50900500D01*
X89700008Y-50900500D01*
X89802797Y-50889999D01*
X89969334Y-50834814D01*
X90118655Y-50742711D01*
X90242711Y-50618655D01*
X90334814Y-50469334D01*
X90389999Y-50302797D01*
X90400500Y-50200008D01*
X90400500Y-47799992D01*
X90389999Y-47697203D01*
X90334814Y-47530666D01*
X90242711Y-47381345D01*
X90118655Y-47257289D01*
X90118651Y-47257286D01*
X89969337Y-47165187D01*
X89969335Y-47165186D01*
X89886065Y-47137593D01*
X89802797Y-47110001D01*
X89802795Y-47110000D01*
X89700015Y-47099500D01*
X89700008Y-47099500D01*
X87299992Y-47099500D01*
X87299984Y-47099500D01*
X87197204Y-47110000D01*
X87197203Y-47110001D01*
X87030664Y-47165186D01*
X87030662Y-47165187D01*
X86881348Y-47257286D01*
X86881344Y-47257289D01*
X86757289Y-47381344D01*
X86757286Y-47381348D01*
X86665187Y-47530662D01*
X86665186Y-47530664D01*
X86610001Y-47697203D01*
X86610000Y-47697204D01*
X86599500Y-47799984D01*
X86599500Y-47835500D01*
X86579815Y-47902539D01*
X86527011Y-47948294D01*
X86475500Y-47959500D01*
X78205633Y-47959500D01*
X78138594Y-47939815D01*
X78132746Y-47935817D01*
X78129200Y-47933240D01*
X77960836Y-47847454D01*
X77781118Y-47789059D01*
X77594486Y-47759500D01*
X77594481Y-47759500D01*
X77405519Y-47759500D01*
X77405514Y-47759500D01*
X77218881Y-47789059D01*
X77039163Y-47847454D01*
X76870800Y-47933240D01*
X76834657Y-47959500D01*
X76717927Y-48044310D01*
X76717925Y-48044312D01*
X76717924Y-48044312D01*
X76584312Y-48177924D01*
X76584312Y-48177925D01*
X76584310Y-48177927D01*
X76536610Y-48243579D01*
X76473240Y-48330800D01*
X76387454Y-48499165D01*
X76329059Y-48678884D01*
X76328372Y-48683223D01*
X76298437Y-48746356D01*
X76293581Y-48751497D01*
X75690832Y-49354248D01*
X75629509Y-49387733D01*
X75603151Y-49390567D01*
X67212231Y-49390567D01*
X67145192Y-49370882D01*
X67124550Y-49354249D01*
X67073096Y-49302795D01*
X67018656Y-49248355D01*
X66869334Y-49156253D01*
X66702797Y-49101068D01*
X66702795Y-49101067D01*
X66600016Y-49090567D01*
X66600009Y-49090567D01*
X66165783Y-49090567D01*
X66098744Y-49070882D01*
X66078102Y-49054248D01*
X56536819Y-39512965D01*
X56503334Y-39451642D01*
X56500500Y-39425284D01*
X56500500Y-35100301D01*
X56520185Y-35033262D01*
X56572989Y-34987507D01*
X56585487Y-34982598D01*
X56669335Y-34954814D01*
X56818656Y-34862712D01*
X56942712Y-34738656D01*
X57034814Y-34589335D01*
X57089999Y-34422798D01*
X57100500Y-34320010D01*
X57100500Y-32519990D01*
X57089999Y-32417202D01*
X57034814Y-32250665D01*
X56942712Y-32101344D01*
X56818656Y-31977288D01*
X56669335Y-31885186D01*
X56502798Y-31830001D01*
X56502796Y-31830000D01*
X56400017Y-31819500D01*
X56400010Y-31819500D01*
X54599990Y-31819500D01*
X54599982Y-31819500D01*
X54497203Y-31830000D01*
X54497202Y-31830001D01*
X54414669Y-31857349D01*
X54330667Y-31885185D01*
X54330662Y-31885187D01*
X54181342Y-31977289D01*
X54057289Y-32101342D01*
X53965187Y-32250662D01*
X53965186Y-32250665D01*
X53910001Y-32417202D01*
X53910001Y-32417203D01*
X53910000Y-32417203D01*
X53899500Y-32519982D01*
X53899500Y-33375500D01*
X53879815Y-33442539D01*
X53827011Y-33488294D01*
X53775500Y-33499500D01*
X43180301Y-33499500D01*
X43113262Y-33479815D01*
X43067507Y-33427011D01*
X43062598Y-33414512D01*
X43034814Y-33330665D01*
X42942712Y-33181344D01*
X42818656Y-33057288D01*
X42669335Y-32965186D01*
X42502798Y-32910001D01*
X42502796Y-32910000D01*
X42400017Y-32899500D01*
X42400010Y-32899500D01*
X40599990Y-32899500D01*
X40599982Y-32899500D01*
X40497203Y-32910000D01*
X40497202Y-32910001D01*
X40414669Y-32937349D01*
X40330667Y-32965185D01*
X40330662Y-32965187D01*
X40181342Y-33057289D01*
X40057289Y-33181342D01*
X39965187Y-33330662D01*
X39965186Y-33330665D01*
X39910001Y-33497202D01*
X39910001Y-33497203D01*
X39910000Y-33497203D01*
X39899500Y-33599982D01*
X39899500Y-35400017D01*
X39910000Y-35502796D01*
X39910001Y-35502798D01*
X39965186Y-35669335D01*
X40057288Y-35818656D01*
X40181344Y-35942712D01*
X40330665Y-36034814D01*
X40497202Y-36089999D01*
X40599990Y-36100500D01*
X40599995Y-36100500D01*
X42400005Y-36100500D01*
X42400010Y-36100500D01*
X42502798Y-36089999D01*
X42669335Y-36034814D01*
X42818656Y-35942712D01*
X42942712Y-35818656D01*
X43034814Y-35669335D01*
X43062596Y-35585494D01*
X43102368Y-35528051D01*
X43166883Y-35501228D01*
X43180301Y-35500500D01*
X54321460Y-35500500D01*
X54375500Y-35500500D01*
X54442539Y-35520185D01*
X54488294Y-35572989D01*
X54499500Y-35624500D01*
X54499500Y-39989611D01*
X54537947Y-40182900D01*
X54537949Y-40182904D01*
X54540309Y-40188601D01*
X54560038Y-40236232D01*
X54578892Y-40281750D01*
X54613366Y-40364978D01*
X54613371Y-40364987D01*
X54722859Y-40528847D01*
X54722860Y-40528848D01*
X54722861Y-40528849D01*
X54862218Y-40668206D01*
X54862219Y-40668206D01*
X54869286Y-40675273D01*
X54869285Y-40675273D01*
X54869289Y-40675276D01*
X56010451Y-41816438D01*
X56043936Y-41877761D01*
X56038952Y-41947453D01*
X55997080Y-42003386D01*
X55931616Y-42027803D01*
X55884455Y-42022051D01*
X55874790Y-42018911D01*
X55874786Y-42018910D01*
X55750373Y-41999205D01*
X55625962Y-41979500D01*
X55374038Y-41979500D01*
X55249626Y-41999205D01*
X55125214Y-42018910D01*
X54885616Y-42096760D01*
X54661151Y-42211132D01*
X54457350Y-42359201D01*
X54457345Y-42359205D01*
X54279205Y-42537345D01*
X54279201Y-42537350D01*
X54131132Y-42741151D01*
X54016760Y-42965616D01*
X53938910Y-43205214D01*
X53899500Y-43454038D01*
X53899500Y-43710834D01*
X53897986Y-43710834D01*
X53884985Y-43772646D01*
X53863427Y-43801651D01*
X50701899Y-46963181D01*
X50640576Y-46996666D01*
X50614218Y-46999500D01*
X27057000Y-46999500D01*
X26989961Y-46979815D01*
X26944206Y-46927011D01*
X26933000Y-46875500D01*
X26933000Y-46799997D01*
X26932999Y-46799984D01*
X26922499Y-46697204D01*
X26922499Y-46697203D01*
X26867314Y-46530666D01*
X26775211Y-46381345D01*
X26651155Y-46257289D01*
X26651151Y-46257286D01*
X26501837Y-46165187D01*
X26501835Y-46165186D01*
X26418565Y-46137593D01*
X26335297Y-46110001D01*
X26335295Y-46110000D01*
X26232515Y-46099500D01*
X26232508Y-46099500D01*
X23832492Y-46099500D01*
X23832484Y-46099500D01*
X23729704Y-46110000D01*
X23729703Y-46110001D01*
X23563164Y-46165186D01*
X23563162Y-46165187D01*
X23413848Y-46257286D01*
X23413844Y-46257289D01*
X23289789Y-46381344D01*
X23289786Y-46381348D01*
X23197687Y-46530662D01*
X23197686Y-46530664D01*
X23142501Y-46697203D01*
X23142500Y-46697204D01*
X23132000Y-46799984D01*
X17500500Y-46799984D01*
X17500500Y-44534038D01*
X39899500Y-44534038D01*
X39899500Y-44785961D01*
X39938910Y-45034785D01*
X40016760Y-45274383D01*
X40131132Y-45498848D01*
X40279201Y-45702649D01*
X40279205Y-45702654D01*
X40457345Y-45880794D01*
X40457350Y-45880798D01*
X40615115Y-45995420D01*
X40661155Y-46028870D01*
X40799774Y-46099500D01*
X40885616Y-46143239D01*
X40885618Y-46143239D01*
X40885621Y-46143241D01*
X41125215Y-46221090D01*
X41374038Y-46260500D01*
X41374039Y-46260500D01*
X41625961Y-46260500D01*
X41625962Y-46260500D01*
X41874785Y-46221090D01*
X42114379Y-46143241D01*
X42338845Y-46028870D01*
X42542656Y-45880793D01*
X42720793Y-45702656D01*
X42868870Y-45498845D01*
X42983241Y-45274379D01*
X43061090Y-45034785D01*
X43100500Y-44785962D01*
X43100500Y-44534038D01*
X43061090Y-44285215D01*
X42983241Y-44045621D01*
X42983239Y-44045618D01*
X42983239Y-44045616D01*
X42936958Y-43954785D01*
X42868870Y-43821155D01*
X42822570Y-43757428D01*
X42720798Y-43617350D01*
X42720794Y-43617345D01*
X42542654Y-43439205D01*
X42542649Y-43439201D01*
X42338848Y-43291132D01*
X42338847Y-43291131D01*
X42338845Y-43291130D01*
X42268747Y-43255413D01*
X42114383Y-43176760D01*
X41874785Y-43098910D01*
X41625962Y-43059500D01*
X41374038Y-43059500D01*
X41310598Y-43069548D01*
X41125214Y-43098910D01*
X40885616Y-43176760D01*
X40661151Y-43291132D01*
X40457350Y-43439201D01*
X40457345Y-43439205D01*
X40279205Y-43617345D01*
X40279201Y-43617350D01*
X40131132Y-43821151D01*
X40016760Y-44045616D01*
X39938910Y-44285214D01*
X39899500Y-44534038D01*
X17500500Y-44534038D01*
X17500500Y-28124500D01*
X17520185Y-28057461D01*
X17572989Y-28011706D01*
X17624500Y-28000500D01*
X61375500Y-28000500D01*
X61442539Y-28020185D01*
G37*
%TD.AperFunction*%
%TD*%
M02*
