%TF.GenerationSoftware,KiCad,Pcbnew,10.0.3*%
%TF.CreationDate,2026-06-26T15:00:34+05:30*%
%TF.ProjectId,king cobra kicad,6b696e67-2063-46f6-9272-61206b696361,rev?*%
%TF.SameCoordinates,Original*%
%TF.FileFunction,Legend,Bot*%
%TF.FilePolarity,Positive*%
%FSLAX46Y46*%
G04 Gerber Fmt 4.6, Leading zero omitted, Abs format (unit mm)*
G04 Created by KiCad (PCBNEW 10.0.3) date 2026-06-26 15:00:34*
%MOMM*%
%LPD*%
G01*
G04 APERTURE LIST*
%ADD10C,0.100000*%
G04 APERTURE END LIST*
D10*
X27196115Y-29372419D02*
X27196115Y-28372419D01*
X27100877Y-28991466D02*
X26815163Y-29372419D01*
X26815163Y-28705752D02*
X27196115Y-29086704D01*
X25958020Y-28705752D02*
X25958020Y-29372419D01*
X26386591Y-28705752D02*
X26386591Y-29229561D01*
X26386591Y-29229561D02*
X26338972Y-29324800D01*
X26338972Y-29324800D02*
X26243734Y-29372419D01*
X26243734Y-29372419D02*
X26100877Y-29372419D01*
X26100877Y-29372419D02*
X26005639Y-29324800D01*
X26005639Y-29324800D02*
X25958020Y-29277180D01*
X25481829Y-28705752D02*
X25481829Y-29372419D01*
X25481829Y-28800990D02*
X25434210Y-28753371D01*
X25434210Y-28753371D02*
X25338972Y-28705752D01*
X25338972Y-28705752D02*
X25196115Y-28705752D01*
X25196115Y-28705752D02*
X25100877Y-28753371D01*
X25100877Y-28753371D02*
X25053258Y-28848609D01*
X25053258Y-28848609D02*
X25053258Y-29372419D01*
X24577067Y-28705752D02*
X24577067Y-29562895D01*
X24577067Y-29562895D02*
X24624686Y-29658133D01*
X24624686Y-29658133D02*
X24719924Y-29705752D01*
X24719924Y-29705752D02*
X24767543Y-29705752D01*
X24577067Y-28372419D02*
X24624686Y-28420038D01*
X24624686Y-28420038D02*
X24577067Y-28467657D01*
X24577067Y-28467657D02*
X24529448Y-28420038D01*
X24529448Y-28420038D02*
X24577067Y-28372419D01*
X24577067Y-28372419D02*
X24577067Y-28467657D01*
X23672306Y-29372419D02*
X23672306Y-28848609D01*
X23672306Y-28848609D02*
X23719925Y-28753371D01*
X23719925Y-28753371D02*
X23815163Y-28705752D01*
X23815163Y-28705752D02*
X24005639Y-28705752D01*
X24005639Y-28705752D02*
X24100877Y-28753371D01*
X23672306Y-29324800D02*
X23767544Y-29372419D01*
X23767544Y-29372419D02*
X24005639Y-29372419D01*
X24005639Y-29372419D02*
X24100877Y-29324800D01*
X24100877Y-29324800D02*
X24148496Y-29229561D01*
X24148496Y-29229561D02*
X24148496Y-29134323D01*
X24148496Y-29134323D02*
X24100877Y-29039085D01*
X24100877Y-29039085D02*
X24005639Y-28991466D01*
X24005639Y-28991466D02*
X23767544Y-28991466D01*
X23767544Y-28991466D02*
X23672306Y-28943847D01*
X23196115Y-28705752D02*
X23196115Y-29705752D01*
X23196115Y-28753371D02*
X23100877Y-28705752D01*
X23100877Y-28705752D02*
X22910401Y-28705752D01*
X22910401Y-28705752D02*
X22815163Y-28753371D01*
X22815163Y-28753371D02*
X22767544Y-28800990D01*
X22767544Y-28800990D02*
X22719925Y-28896228D01*
X22719925Y-28896228D02*
X22719925Y-29181942D01*
X22719925Y-29181942D02*
X22767544Y-29277180D01*
X22767544Y-29277180D02*
X22815163Y-29324800D01*
X22815163Y-29324800D02*
X22910401Y-29372419D01*
X22910401Y-29372419D02*
X23100877Y-29372419D01*
X23100877Y-29372419D02*
X23196115Y-29324800D01*
X21862782Y-28705752D02*
X21862782Y-29372419D01*
X22291353Y-28705752D02*
X22291353Y-29229561D01*
X22291353Y-29229561D02*
X22243734Y-29324800D01*
X22243734Y-29324800D02*
X22148496Y-29372419D01*
X22148496Y-29372419D02*
X22005639Y-29372419D01*
X22005639Y-29372419D02*
X21910401Y-29324800D01*
X21910401Y-29324800D02*
X21862782Y-29277180D01*
X20958020Y-28705752D02*
X20958020Y-29372419D01*
X21386591Y-28705752D02*
X21386591Y-29229561D01*
X21386591Y-29229561D02*
X21338972Y-29324800D01*
X21338972Y-29324800D02*
X21243734Y-29372419D01*
X21243734Y-29372419D02*
X21100877Y-29372419D01*
X21100877Y-29372419D02*
X21005639Y-29324800D01*
X21005639Y-29324800D02*
X20958020Y-29277180D01*
X20053258Y-28705752D02*
X20053258Y-29372419D01*
X20481829Y-28705752D02*
X20481829Y-29229561D01*
X20481829Y-29229561D02*
X20434210Y-29324800D01*
X20434210Y-29324800D02*
X20338972Y-29372419D01*
X20338972Y-29372419D02*
X20196115Y-29372419D01*
X20196115Y-29372419D02*
X20100877Y-29324800D01*
X20100877Y-29324800D02*
X20053258Y-29277180D01*
X19148496Y-28705752D02*
X19148496Y-29372419D01*
X19577067Y-28705752D02*
X19577067Y-29229561D01*
X19577067Y-29229561D02*
X19529448Y-29324800D01*
X19529448Y-29324800D02*
X19434210Y-29372419D01*
X19434210Y-29372419D02*
X19291353Y-29372419D01*
X19291353Y-29372419D02*
X19196115Y-29324800D01*
X19196115Y-29324800D02*
X19148496Y-29277180D01*
X18243734Y-28705752D02*
X18243734Y-29372419D01*
X18672305Y-28705752D02*
X18672305Y-29229561D01*
X18672305Y-29229561D02*
X18624686Y-29324800D01*
X18624686Y-29324800D02*
X18529448Y-29372419D01*
X18529448Y-29372419D02*
X18386591Y-29372419D01*
X18386591Y-29372419D02*
X18291353Y-29324800D01*
X18291353Y-29324800D02*
X18243734Y-29277180D01*
M02*
