%TF.GenerationSoftware,KiCad,Pcbnew,10.0.3*%
%TF.CreationDate,2026-06-26T15:00:34+05:30*%
%TF.ProjectId,king cobra kicad,6b696e67-2063-46f6-9272-61206b696361,rev?*%
%TF.SameCoordinates,Original*%
%TF.FileFunction,Legend,Top*%
%TF.FilePolarity,Positive*%
%FSLAX46Y46*%
G04 Gerber Fmt 4.6, Leading zero omitted, Abs format (unit mm)*
G04 Created by KiCad (PCBNEW 10.0.3) date 2026-06-26 15:00:34*
%MOMM*%
%LPD*%
G01*
G04 APERTURE LIST*
%ADD10C,0.100000*%
%ADD11C,0.150000*%
%ADD12C,0.120000*%
G04 APERTURE END LIST*
D10*
X18303884Y-29372419D02*
X18303884Y-28372419D01*
X18399122Y-28991466D02*
X18684836Y-29372419D01*
X18684836Y-28705752D02*
X18303884Y-29086704D01*
X19541979Y-28705752D02*
X19541979Y-29372419D01*
X19113408Y-28705752D02*
X19113408Y-29229561D01*
X19113408Y-29229561D02*
X19161027Y-29324800D01*
X19161027Y-29324800D02*
X19256265Y-29372419D01*
X19256265Y-29372419D02*
X19399122Y-29372419D01*
X19399122Y-29372419D02*
X19494360Y-29324800D01*
X19494360Y-29324800D02*
X19541979Y-29277180D01*
X20018170Y-28705752D02*
X20018170Y-29372419D01*
X20018170Y-28800990D02*
X20065789Y-28753371D01*
X20065789Y-28753371D02*
X20161027Y-28705752D01*
X20161027Y-28705752D02*
X20303884Y-28705752D01*
X20303884Y-28705752D02*
X20399122Y-28753371D01*
X20399122Y-28753371D02*
X20446741Y-28848609D01*
X20446741Y-28848609D02*
X20446741Y-29372419D01*
X20922932Y-28705752D02*
X20922932Y-29562895D01*
X20922932Y-29562895D02*
X20875313Y-29658133D01*
X20875313Y-29658133D02*
X20780075Y-29705752D01*
X20780075Y-29705752D02*
X20732456Y-29705752D01*
X20922932Y-28372419D02*
X20875313Y-28420038D01*
X20875313Y-28420038D02*
X20922932Y-28467657D01*
X20922932Y-28467657D02*
X20970551Y-28420038D01*
X20970551Y-28420038D02*
X20922932Y-28372419D01*
X20922932Y-28372419D02*
X20922932Y-28467657D01*
X21827693Y-29372419D02*
X21827693Y-28848609D01*
X21827693Y-28848609D02*
X21780074Y-28753371D01*
X21780074Y-28753371D02*
X21684836Y-28705752D01*
X21684836Y-28705752D02*
X21494360Y-28705752D01*
X21494360Y-28705752D02*
X21399122Y-28753371D01*
X21827693Y-29324800D02*
X21732455Y-29372419D01*
X21732455Y-29372419D02*
X21494360Y-29372419D01*
X21494360Y-29372419D02*
X21399122Y-29324800D01*
X21399122Y-29324800D02*
X21351503Y-29229561D01*
X21351503Y-29229561D02*
X21351503Y-29134323D01*
X21351503Y-29134323D02*
X21399122Y-29039085D01*
X21399122Y-29039085D02*
X21494360Y-28991466D01*
X21494360Y-28991466D02*
X21732455Y-28991466D01*
X21732455Y-28991466D02*
X21827693Y-28943847D01*
X22303884Y-28705752D02*
X22303884Y-29705752D01*
X22303884Y-28753371D02*
X22399122Y-28705752D01*
X22399122Y-28705752D02*
X22589598Y-28705752D01*
X22589598Y-28705752D02*
X22684836Y-28753371D01*
X22684836Y-28753371D02*
X22732455Y-28800990D01*
X22732455Y-28800990D02*
X22780074Y-28896228D01*
X22780074Y-28896228D02*
X22780074Y-29181942D01*
X22780074Y-29181942D02*
X22732455Y-29277180D01*
X22732455Y-29277180D02*
X22684836Y-29324800D01*
X22684836Y-29324800D02*
X22589598Y-29372419D01*
X22589598Y-29372419D02*
X22399122Y-29372419D01*
X22399122Y-29372419D02*
X22303884Y-29324800D01*
X23637217Y-28705752D02*
X23637217Y-29372419D01*
X23208646Y-28705752D02*
X23208646Y-29229561D01*
X23208646Y-29229561D02*
X23256265Y-29324800D01*
X23256265Y-29324800D02*
X23351503Y-29372419D01*
X23351503Y-29372419D02*
X23494360Y-29372419D01*
X23494360Y-29372419D02*
X23589598Y-29324800D01*
X23589598Y-29324800D02*
X23637217Y-29277180D01*
X24541979Y-28705752D02*
X24541979Y-29372419D01*
X24113408Y-28705752D02*
X24113408Y-29229561D01*
X24113408Y-29229561D02*
X24161027Y-29324800D01*
X24161027Y-29324800D02*
X24256265Y-29372419D01*
X24256265Y-29372419D02*
X24399122Y-29372419D01*
X24399122Y-29372419D02*
X24494360Y-29324800D01*
X24494360Y-29324800D02*
X24541979Y-29277180D01*
X25446741Y-28705752D02*
X25446741Y-29372419D01*
X25018170Y-28705752D02*
X25018170Y-29229561D01*
X25018170Y-29229561D02*
X25065789Y-29324800D01*
X25065789Y-29324800D02*
X25161027Y-29372419D01*
X25161027Y-29372419D02*
X25303884Y-29372419D01*
X25303884Y-29372419D02*
X25399122Y-29324800D01*
X25399122Y-29324800D02*
X25446741Y-29277180D01*
X26351503Y-28705752D02*
X26351503Y-29372419D01*
X25922932Y-28705752D02*
X25922932Y-29229561D01*
X25922932Y-29229561D02*
X25970551Y-29324800D01*
X25970551Y-29324800D02*
X26065789Y-29372419D01*
X26065789Y-29372419D02*
X26208646Y-29372419D01*
X26208646Y-29372419D02*
X26303884Y-29324800D01*
X26303884Y-29324800D02*
X26351503Y-29277180D01*
X27256265Y-28705752D02*
X27256265Y-29372419D01*
X26827694Y-28705752D02*
X26827694Y-29229561D01*
X26827694Y-29229561D02*
X26875313Y-29324800D01*
X26875313Y-29324800D02*
X26970551Y-29372419D01*
X26970551Y-29372419D02*
X27113408Y-29372419D01*
X27113408Y-29372419D02*
X27208646Y-29324800D01*
X27208646Y-29324800D02*
X27256265Y-29277180D01*
D11*
X79874819Y-51666666D02*
X79398628Y-51999999D01*
X79874819Y-52238094D02*
X78874819Y-52238094D01*
X78874819Y-52238094D02*
X78874819Y-51857142D01*
X78874819Y-51857142D02*
X78922438Y-51761904D01*
X78922438Y-51761904D02*
X78970057Y-51714285D01*
X78970057Y-51714285D02*
X79065295Y-51666666D01*
X79065295Y-51666666D02*
X79208152Y-51666666D01*
X79208152Y-51666666D02*
X79303390Y-51714285D01*
X79303390Y-51714285D02*
X79351009Y-51761904D01*
X79351009Y-51761904D02*
X79398628Y-51857142D01*
X79398628Y-51857142D02*
X79398628Y-52238094D01*
X79874819Y-50714285D02*
X79874819Y-51285713D01*
X79874819Y-50999999D02*
X78874819Y-50999999D01*
X78874819Y-50999999D02*
X79017676Y-51095237D01*
X79017676Y-51095237D02*
X79112914Y-51190475D01*
X79112914Y-51190475D02*
X79160533Y-51285713D01*
X93074819Y-51583333D02*
X93789104Y-51583333D01*
X93789104Y-51583333D02*
X93931961Y-51630952D01*
X93931961Y-51630952D02*
X94027200Y-51726190D01*
X94027200Y-51726190D02*
X94074819Y-51869047D01*
X94074819Y-51869047D02*
X94074819Y-51964285D01*
X93170057Y-51154761D02*
X93122438Y-51107142D01*
X93122438Y-51107142D02*
X93074819Y-51011904D01*
X93074819Y-51011904D02*
X93074819Y-50773809D01*
X93074819Y-50773809D02*
X93122438Y-50678571D01*
X93122438Y-50678571D02*
X93170057Y-50630952D01*
X93170057Y-50630952D02*
X93265295Y-50583333D01*
X93265295Y-50583333D02*
X93360533Y-50583333D01*
X93360533Y-50583333D02*
X93503390Y-50630952D01*
X93503390Y-50630952D02*
X94074819Y-51202380D01*
X94074819Y-51202380D02*
X94074819Y-50583333D01*
X29607319Y-50583333D02*
X30321604Y-50583333D01*
X30321604Y-50583333D02*
X30464461Y-50630952D01*
X30464461Y-50630952D02*
X30559700Y-50726190D01*
X30559700Y-50726190D02*
X30607319Y-50869047D01*
X30607319Y-50869047D02*
X30607319Y-50964285D01*
X30607319Y-49583333D02*
X30607319Y-50154761D01*
X30607319Y-49869047D02*
X29607319Y-49869047D01*
X29607319Y-49869047D02*
X29750176Y-49964285D01*
X29750176Y-49964285D02*
X29845414Y-50059523D01*
X29845414Y-50059523D02*
X29893033Y-50154761D01*
X58424819Y-39238094D02*
X57424819Y-39238094D01*
X57424819Y-39238094D02*
X57424819Y-38999999D01*
X57424819Y-38999999D02*
X57472438Y-38857142D01*
X57472438Y-38857142D02*
X57567676Y-38761904D01*
X57567676Y-38761904D02*
X57662914Y-38714285D01*
X57662914Y-38714285D02*
X57853390Y-38666666D01*
X57853390Y-38666666D02*
X57996247Y-38666666D01*
X57996247Y-38666666D02*
X58186723Y-38714285D01*
X58186723Y-38714285D02*
X58281961Y-38761904D01*
X58281961Y-38761904D02*
X58377200Y-38857142D01*
X58377200Y-38857142D02*
X58424819Y-38999999D01*
X58424819Y-38999999D02*
X58424819Y-39238094D01*
X57758152Y-37809523D02*
X58424819Y-37809523D01*
X57377200Y-38047618D02*
X58091485Y-38285713D01*
X58091485Y-38285713D02*
X58091485Y-37666666D01*
X58054819Y-33681904D02*
X57054819Y-33681904D01*
X58054819Y-33110476D02*
X57483390Y-33539047D01*
X57054819Y-33110476D02*
X57626247Y-33681904D01*
X55954819Y-66238094D02*
X54954819Y-66238094D01*
X54954819Y-66238094D02*
X54954819Y-65999999D01*
X54954819Y-65999999D02*
X55002438Y-65857142D01*
X55002438Y-65857142D02*
X55097676Y-65761904D01*
X55097676Y-65761904D02*
X55192914Y-65714285D01*
X55192914Y-65714285D02*
X55383390Y-65666666D01*
X55383390Y-65666666D02*
X55526247Y-65666666D01*
X55526247Y-65666666D02*
X55716723Y-65714285D01*
X55716723Y-65714285D02*
X55811961Y-65761904D01*
X55811961Y-65761904D02*
X55907200Y-65857142D01*
X55907200Y-65857142D02*
X55954819Y-65999999D01*
X55954819Y-65999999D02*
X55954819Y-66238094D01*
X54954819Y-65333332D02*
X54954819Y-64714285D01*
X54954819Y-64714285D02*
X55335771Y-65047618D01*
X55335771Y-65047618D02*
X55335771Y-64904761D01*
X55335771Y-64904761D02*
X55383390Y-64809523D01*
X55383390Y-64809523D02*
X55431009Y-64761904D01*
X55431009Y-64761904D02*
X55526247Y-64714285D01*
X55526247Y-64714285D02*
X55764342Y-64714285D01*
X55764342Y-64714285D02*
X55859580Y-64761904D01*
X55859580Y-64761904D02*
X55907200Y-64809523D01*
X55907200Y-64809523D02*
X55954819Y-64904761D01*
X55954819Y-64904761D02*
X55954819Y-65190475D01*
X55954819Y-65190475D02*
X55907200Y-65285713D01*
X55907200Y-65285713D02*
X55859580Y-65333332D01*
X58054819Y-60681904D02*
X57054819Y-60681904D01*
X58054819Y-60110476D02*
X57483390Y-60539047D01*
X57054819Y-60110476D02*
X57626247Y-60681904D01*
X44424819Y-66238094D02*
X43424819Y-66238094D01*
X43424819Y-66238094D02*
X43424819Y-65999999D01*
X43424819Y-65999999D02*
X43472438Y-65857142D01*
X43472438Y-65857142D02*
X43567676Y-65761904D01*
X43567676Y-65761904D02*
X43662914Y-65714285D01*
X43662914Y-65714285D02*
X43853390Y-65666666D01*
X43853390Y-65666666D02*
X43996247Y-65666666D01*
X43996247Y-65666666D02*
X44186723Y-65714285D01*
X44186723Y-65714285D02*
X44281961Y-65761904D01*
X44281961Y-65761904D02*
X44377200Y-65857142D01*
X44377200Y-65857142D02*
X44424819Y-65999999D01*
X44424819Y-65999999D02*
X44424819Y-66238094D01*
X43520057Y-65285713D02*
X43472438Y-65238094D01*
X43472438Y-65238094D02*
X43424819Y-65142856D01*
X43424819Y-65142856D02*
X43424819Y-64904761D01*
X43424819Y-64904761D02*
X43472438Y-64809523D01*
X43472438Y-64809523D02*
X43520057Y-64761904D01*
X43520057Y-64761904D02*
X43615295Y-64714285D01*
X43615295Y-64714285D02*
X43710533Y-64714285D01*
X43710533Y-64714285D02*
X43853390Y-64761904D01*
X43853390Y-64761904D02*
X44424819Y-65333332D01*
X44424819Y-65333332D02*
X44424819Y-64714285D01*
X44054819Y-60681904D02*
X43054819Y-60681904D01*
X44054819Y-60110476D02*
X43483390Y-60539047D01*
X43054819Y-60110476D02*
X43626247Y-60681904D01*
X44424819Y-40318094D02*
X43424819Y-40318094D01*
X43424819Y-40318094D02*
X43424819Y-40079999D01*
X43424819Y-40079999D02*
X43472438Y-39937142D01*
X43472438Y-39937142D02*
X43567676Y-39841904D01*
X43567676Y-39841904D02*
X43662914Y-39794285D01*
X43662914Y-39794285D02*
X43853390Y-39746666D01*
X43853390Y-39746666D02*
X43996247Y-39746666D01*
X43996247Y-39746666D02*
X44186723Y-39794285D01*
X44186723Y-39794285D02*
X44281961Y-39841904D01*
X44281961Y-39841904D02*
X44377200Y-39937142D01*
X44377200Y-39937142D02*
X44424819Y-40079999D01*
X44424819Y-40079999D02*
X44424819Y-40318094D01*
X44424819Y-38794285D02*
X44424819Y-39365713D01*
X44424819Y-39079999D02*
X43424819Y-39079999D01*
X43424819Y-39079999D02*
X43567676Y-39175237D01*
X43567676Y-39175237D02*
X43662914Y-39270475D01*
X43662914Y-39270475D02*
X43710533Y-39365713D01*
X44054819Y-34761904D02*
X43054819Y-34761904D01*
X44054819Y-34190476D02*
X43483390Y-34619047D01*
X43054819Y-34190476D02*
X43626247Y-34761904D01*
X72859580Y-51666666D02*
X72907200Y-51714285D01*
X72907200Y-51714285D02*
X72954819Y-51857142D01*
X72954819Y-51857142D02*
X72954819Y-51952380D01*
X72954819Y-51952380D02*
X72907200Y-52095237D01*
X72907200Y-52095237D02*
X72811961Y-52190475D01*
X72811961Y-52190475D02*
X72716723Y-52238094D01*
X72716723Y-52238094D02*
X72526247Y-52285713D01*
X72526247Y-52285713D02*
X72383390Y-52285713D01*
X72383390Y-52285713D02*
X72192914Y-52238094D01*
X72192914Y-52238094D02*
X72097676Y-52190475D01*
X72097676Y-52190475D02*
X72002438Y-52095237D01*
X72002438Y-52095237D02*
X71954819Y-51952380D01*
X71954819Y-51952380D02*
X71954819Y-51857142D01*
X71954819Y-51857142D02*
X72002438Y-51714285D01*
X72002438Y-51714285D02*
X72050057Y-51666666D01*
X72954819Y-50714285D02*
X72954819Y-51285713D01*
X72954819Y-50999999D02*
X71954819Y-50999999D01*
X71954819Y-50999999D02*
X72097676Y-51095237D01*
X72097676Y-51095237D02*
X72192914Y-51190475D01*
X72192914Y-51190475D02*
X72240533Y-51285713D01*
%TO.C,R1*%
D12*
X76580000Y-49580000D02*
X76580000Y-53420000D01*
X78420000Y-49580000D02*
X78420000Y-53420000D01*
%TO.C,J2*%
X92620000Y-45880000D02*
X92620000Y-56620000D01*
X89000000Y-45880000D02*
X89000000Y-47120000D01*
X88000000Y-45880000D02*
X88000000Y-47120000D01*
X86700000Y-45880000D02*
X86700000Y-47120000D01*
X84580000Y-45880000D02*
X92620000Y-45880000D01*
X84580000Y-48700000D02*
X84580000Y-45880000D01*
X89000000Y-50880000D02*
X89000000Y-52188000D01*
X88000000Y-50880000D02*
X88000000Y-52188000D01*
X86700000Y-50880000D02*
X86700000Y-53457000D01*
X86700000Y-54543000D02*
X86700000Y-56620000D01*
X89000000Y-55812000D02*
X89000000Y-56620000D01*
X88000000Y-55812000D02*
X88000000Y-56620000D01*
X92620000Y-56620000D02*
X84580000Y-56620000D01*
X84580000Y-56620000D02*
X84580000Y-49300000D01*
X84580000Y-49000000D02*
X83970000Y-49440000D01*
X83970000Y-48560000D01*
X84580000Y-49000000D01*
G36*
X84580000Y-49000000D02*
G01*
X83970000Y-49440000D01*
X83970000Y-48560000D01*
X84580000Y-49000000D01*
G37*
%TO.C,J1*%
X29152500Y-44880000D02*
X29152500Y-55620000D01*
X25532500Y-44880000D02*
X25532500Y-46120000D01*
X24532500Y-44880000D02*
X24532500Y-46120000D01*
X23232500Y-44880000D02*
X23232500Y-46120000D01*
X21112500Y-44880000D02*
X29152500Y-44880000D01*
X21112500Y-47700000D02*
X21112500Y-44880000D01*
X25532500Y-49880000D02*
X25532500Y-51188000D01*
X24532500Y-49880000D02*
X24532500Y-51188000D01*
X23232500Y-49880000D02*
X23232500Y-52457000D01*
X23232500Y-53543000D02*
X23232500Y-55620000D01*
X25532500Y-54812000D02*
X25532500Y-55620000D01*
X24532500Y-54812000D02*
X24532500Y-55620000D01*
X29152500Y-55620000D02*
X21112500Y-55620000D01*
X21112500Y-55620000D02*
X21112500Y-48300000D01*
X21112500Y-48000000D02*
X20502500Y-48440000D01*
X20502500Y-47560000D01*
X21112500Y-48000000D01*
G36*
X21112500Y-48000000D02*
G01*
X20502500Y-48440000D01*
X20502500Y-47560000D01*
X21112500Y-48000000D01*
G37*
%TO.C,D4*%
X55500000Y-34760000D02*
X55500000Y-35780000D01*
X56970000Y-36560000D02*
X54030000Y-36560000D01*
X56970000Y-36680000D02*
X54030000Y-36680000D01*
X56970000Y-36800000D02*
X54030000Y-36800000D01*
X55500000Y-42240000D02*
X55500000Y-41220000D01*
X54030000Y-35780000D02*
X56970000Y-35780000D01*
X56970000Y-41220000D01*
X54030000Y-41220000D01*
X54030000Y-35780000D01*
%TO.C,D3*%
X55500000Y-61760000D02*
X55500000Y-62780000D01*
X56970000Y-63560000D02*
X54030000Y-63560000D01*
X56970000Y-63680000D02*
X54030000Y-63680000D01*
X56970000Y-63800000D02*
X54030000Y-63800000D01*
X55500000Y-69240000D02*
X55500000Y-68220000D01*
X54030000Y-62780000D02*
X56970000Y-62780000D01*
X56970000Y-68220000D01*
X54030000Y-68220000D01*
X54030000Y-62780000D01*
%TO.C,D2*%
X41500000Y-61760000D02*
X41500000Y-62780000D01*
X42970000Y-63560000D02*
X40030000Y-63560000D01*
X42970000Y-63680000D02*
X40030000Y-63680000D01*
X42970000Y-63800000D02*
X40030000Y-63800000D01*
X41500000Y-69240000D02*
X41500000Y-68220000D01*
X40030000Y-62780000D02*
X42970000Y-62780000D01*
X42970000Y-68220000D01*
X40030000Y-68220000D01*
X40030000Y-62780000D01*
%TO.C,D1*%
X41500000Y-35840000D02*
X41500000Y-36860000D01*
X42970000Y-37640000D02*
X40030000Y-37640000D01*
X42970000Y-37760000D02*
X40030000Y-37760000D01*
X42970000Y-37880000D02*
X40030000Y-37880000D01*
X41500000Y-43320000D02*
X41500000Y-42300000D01*
X40030000Y-36860000D02*
X42970000Y-36860000D01*
X42970000Y-42300000D01*
X40030000Y-42300000D01*
X40030000Y-36860000D01*
%TO.C,C1*%
X69015000Y-45893934D02*
X69015000Y-46943934D01*
X69540000Y-46418934D02*
X68490000Y-46418934D01*
X71370000Y-51641067D02*
G75*
G02*
X60630000Y-51641067I-5370000J0D01*
G01*
X60630000Y-51641067D02*
G75*
G02*
X71370000Y-51641067I5370000J0D01*
G01*
%TD*%
M02*
